<svg width="20" height="20" viewBox="0 0 26 26" fill="none" xmlns="http://www.w3.org/2000/svg">
<path d="M0.00185652 0.928306C0.00185652 0.682104 0.0996622 0.445986 0.273757 0.271894C0.447852 0.0978032 0.683975 0 0.930182 0H1.7434C3.09318 0 3.86926 0.878178 4.31857 1.7545C4.62492 2.35418 4.84586 3.08569 5.02967 3.72065H24.1439C24.4308 3.72074 24.7137 3.7873 24.9706 3.91512C25.2274 4.04294 25.4511 4.22853 25.6242 4.45734C25.7972 4.68615 25.9149 4.95195 25.968 5.23388C26.021 5.51581 26.008 5.8062 25.93 6.08226L23.1524 15.8759C22.9315 16.6529 22.4632 17.3367 21.8186 17.8235C21.1739 18.3103 20.3881 18.5737 19.5802 18.5736H10.1503C9.33576 18.5738 8.5437 18.3063 7.89619 17.8121C7.24867 17.3179 6.78161 16.6245 6.56698 15.8388L5.37501 11.4664C5.36817 11.4468 5.36198 11.427 5.35644 11.407L3.44223 4.91445L3.25657 4.28877C3.0709 3.64639 2.90752 3.07826 2.66244 2.60111C2.36723 2.02556 2.09616 1.85847 1.74154 1.85847H0.928326C0.682119 1.85847 0.445995 1.76067 0.2719 1.58657C0.0978052 1.41248 0 1.17636 0 0.930163M10.219 26C10.9576 26 11.666 25.7066 12.1883 25.1843C12.7106 24.662 13.004 23.9537 13.004 23.2151C13.004 22.4765 12.7106 21.7681 12.1883 21.2458C11.666 20.7236 10.9576 20.4302 10.219 20.4302C9.48039 20.4302 8.77202 20.7236 8.24973 21.2458C7.72745 21.7681 7.43403 22.4765 7.43403 23.2151C7.43403 23.9537 7.72745 24.662 8.24973 25.1843C8.77202 25.7066 9.48039 26 10.219 26ZM19.5023 26C20.2409 26 20.9493 25.7066 21.4715 25.1843C21.9938 24.662 22.2872 23.9537 22.2872 23.2151C22.2872 22.4765 21.9938 21.7681 21.4715 21.2458C20.9493 20.7236 20.2409 20.4302 19.5023 20.4302C18.7636 20.4302 18.0553 20.7236 17.533 21.2458C17.0107 21.7681 16.7173 22.4765 16.7173 23.2151C16.7173 23.9537 17.0107 24.662 17.533 25.1843C18.0553 25.7066 18.7636 26 19.5023 26Z" fill="#17096B"/>
</svg>
