<svg width="26" height="27" viewBox="0 0 26 27" fill="none" xmlns="http://www.w3.org/2000/svg">
<g clip-path="url(#clip0_69_232)">
<path d="M16.5633 16.4C16.4043 16.348 15.3993 15.895 16.0273 13.986H16.0183C17.6553 12.3 18.9063 9.58701 18.9063 6.91601C18.9063 2.80901 16.1753 0.656006 13.0013 0.656006C9.82527 0.656006 7.10927 2.80801 7.10927 6.91601C7.10927 9.59801 8.35327 12.322 10.0003 14.004C10.6423 15.688 9.49427 16.313 9.25427 16.401C5.93027 17.603 2.03027 19.794 2.03027 21.957V22.768C2.03027 25.715 7.74427 26.385 13.0323 26.385C18.3283 26.385 23.9703 25.715 23.9703 22.768V21.957C23.9703 19.729 20.0513 17.555 16.5633 16.4Z" fill="#17096B"/>
</g>
<defs>
<clipPath id="clip0_69_232">
<rect width="26" height="26" fill="white" transform="translate(0 0.5)"/>
</clipPath>
</defs>
</svg>
